<svg xmlns="http://www.w3.org/2000/svg" width="146" height="28" viewBox="0 0 146 28" fill="none" class="block h-[28px] w-[146px] dark:hidden"><path d="M98.3091 7.43555C97.6491 7.43555 96.9892 7.43555 96.3293 7.43555C95.8893 7.43555 95.4933 7.54299 95.1414 7.80086C94.6134 8.18766 94.4814 8.74637 94.4814 9.34806C94.4814 11.9912 94.4814 14.6558 94.4814 17.2989V19.9206C94.4814 20.2429 94.7454 20.5223 95.0974 20.5223H97.1212C97.4512 20.5223 97.7371 20.2644 97.7371 19.9206V17.8362V17.3204V10.5729H100.707C101.037 10.5729 101.323 10.3151 101.323 9.97123V8.03724C101.323 7.7149 101.059 7.43555 100.707 7.43555H98.3091Z" fill="#fff" data-darkreader-inline-fill="" style="--darkreader-inline-fill: #fff;"></path><path d="M26.8156 14.1186H19.4463C19.0503 14.1186 18.6983 14.3764 18.6324 14.7632C18.3244 16.5898 16.6965 17.9866 14.7387 17.9866C12.5609 17.9866 10.8011 16.2675 10.8011 14.1401C10.8011 12.249 12.187 10.6804 14.0348 10.358C14.4528 10.2721 14.7607 9.94973 14.7607 9.51996V2.34267C14.7607 1.7195 14.2328 1.22525 13.5948 1.26823C6.84148 1.84843 1.58398 7.37107 1.58398 14.0971C1.58398 21.2099 7.47942 26.9689 14.7607 26.9689C21.6461 26.9689 27.2995 21.8116 27.8935 15.2575C27.9375 14.6128 27.4535 14.1186 26.8156 14.1186Z" fill="#fff" data-darkreader-inline-fill="" style="--darkreader-inline-fill: #fff;"></path><path d="M27.8938 11.6047V2.68682C27.8938 1.91322 27.2338 1.26855 26.4419 1.26855H17.3128C16.4769 1.26855 16.0589 2.25704 16.6529 2.81575L26.2879 12.2279C26.8819 12.8081 27.8938 12.3998 27.8938 11.6047Z" fill="#fff" data-darkreader-inline-fill="" style="--darkreader-inline-fill: #fff;"></path><path d="M44.6558 20.7802C40.6742 20.7802 37.7705 17.9007 37.7705 13.9897C37.7705 10.0572 40.6742 7.17773 44.6558 7.17773C47.8455 7.17773 50.3533 9.04727 51.1452 11.7978C51.2332 12.0987 51.0132 12.3995 50.6833 12.3995H48.2195C48.0435 12.3995 47.8675 12.2921 47.7795 12.1202C47.2296 11.0028 46.0417 10.2506 44.6119 10.2506C42.566 10.2506 41.0482 11.8193 41.0482 13.9682C41.0482 16.1171 42.566 17.6858 44.6119 17.6858C46.0197 17.6858 47.2296 16.9337 47.7795 15.8163C47.8675 15.6443 48.0215 15.5369 48.2195 15.5369H50.6833C51.0132 15.5369 51.2332 15.8377 51.1452 16.1386C50.3313 18.9536 47.8235 20.7802 44.6558 20.7802Z" fill="#fff" data-darkreader-inline-fill="" style="--darkreader-inline-fill: #fff;"></path><path d="M52.8613 14.0112C52.8613 10.0143 55.831 7.19922 59.8787 7.19922C63.9703 7.19922 66.896 10.0143 66.896 14.0112C66.896 18.0081 63.9483 20.8017 59.8787 20.8017C55.831 20.7802 52.8613 17.9866 52.8613 14.0112ZM63.6183 14.0112C63.6183 11.8408 62.1004 10.2936 59.9006 10.2936C57.7229 10.2936 56.183 11.8408 56.183 14.0112C56.183 16.1386 57.7229 17.7288 59.9006 17.7288C62.1004 17.7073 63.6183 16.1386 63.6183 14.0112Z" fill="#fff" data-darkreader-inline-fill="" style="--darkreader-inline-fill: #fff;"></path><path d="M83.6357 6.5115V3.35264C83.6357 3.09477 83.8557 2.87988 84.1197 2.87988H86.4075C86.6714 2.87988 86.8914 3.09477 86.8914 3.35264V7.45701H91.357C91.621 7.45701 91.841 7.6719 91.841 7.92977V9.88525C91.841 10.1431 91.621 10.358 91.357 10.358H86.8914V15.3434C86.8914 16.9121 87.5514 17.6212 89.2892 17.6212C89.8171 17.6212 90.4551 17.5998 91.313 17.5138C91.599 17.4923 91.841 17.7072 91.841 17.9866V20.0925C91.841 20.3288 91.665 20.5437 91.401 20.5652C90.4331 20.6727 89.4652 20.7156 88.6513 20.7156C85.4616 20.7156 83.6357 19.0395 83.6357 15.6658V10.3365V6.5115Z" fill="#fff" data-darkreader-inline-fill="" style="--darkreader-inline-fill: #fff;"></path><path d="M102.049 14.0112C102.049 10.0143 105.019 7.19922 109.066 7.19922C113.158 7.19922 116.083 10.0143 116.083 14.0112C116.083 18.0081 113.136 20.8017 109.066 20.8017C105.019 20.7802 102.049 17.9866 102.049 14.0112ZM112.784 14.0112C112.784 11.8408 111.266 10.2936 109.066 10.2936C106.888 10.2936 105.349 11.8408 105.349 14.0112C105.349 16.1386 106.888 17.7288 109.066 17.7288C111.288 17.7073 112.784 16.1386 112.784 14.0112Z" fill="#fff" data-darkreader-inline-fill="" style="--darkreader-inline-fill: #fff;"></path><path d="M121.649 3.33115V20.0495C121.649 20.3074 121.429 20.5222 121.165 20.5222H118.877C118.613 20.5222 118.393 20.3074 118.393 20.0495V3.33115C118.393 3.07329 118.613 2.8584 118.877 2.8584H121.165C121.429 2.8584 121.649 3.07329 121.649 3.33115Z" fill="#fff" data-darkreader-inline-fill="" style="--darkreader-inline-fill: #fff;"></path><path d="M128.248 3.33115V20.0495C128.248 20.3074 128.028 20.5222 127.764 20.5222H125.476C125.212 20.5222 124.992 20.3074 124.992 20.0495V3.33115C124.992 3.07329 125.212 2.8584 125.476 2.8584H127.764C128.028 2.8584 128.248 3.07329 128.248 3.33115Z" fill="#fff" data-darkreader-inline-fill="" style="--darkreader-inline-fill: #fff;"></path><path d="M80.9959 17.3849C80.9959 15.8377 80.9959 14.2906 80.9959 12.7434C80.9959 12.2706 80.9739 11.7764 80.9079 11.3036C80.8199 10.487 80.5119 9.71342 80.006 9.04727C79.0821 7.84389 77.8282 7.22071 76.3323 7.17773C74.4845 7.17773 72.6147 7.17773 70.7669 7.17773C70.4589 7.17773 70.1509 7.2422 69.865 7.37113C69.117 7.71496 68.8311 8.33813 68.8311 9.11173C68.8311 12.0342 68.8311 14.9782 68.8311 17.9007V19.9421C68.8311 20.2645 69.095 20.5438 69.447 20.5438H71.5368C71.8668 20.5438 72.1527 20.2859 72.1527 19.9421V17.6643C72.1527 15.1716 72.1527 13.2806 72.1527 10.8094C72.1527 10.7449 72.1527 10.6589 72.1527 10.5945C72.1527 10.4655 72.1967 10.4011 72.3507 10.4011C73.4286 10.4226 74.5285 10.3796 75.6064 10.444C76.4863 10.5085 77.1463 10.9383 77.4982 11.7549C77.7182 12.2706 77.7622 12.7863 77.7622 13.3236C77.7622 14.6129 77.7622 18.4594 77.7622 19.9421C77.7622 20.2645 78.0262 20.5438 78.3781 20.5438H80.4679C80.7979 20.5438 81.0839 20.2859 81.0839 19.9421L80.9959 17.3849Z" fill="#fff" data-darkreader-inline-fill="" style="--darkreader-inline-fill: #fff;"></path><path d="M140.853 16.6323C140.699 16.6323 140.545 16.6968 140.435 16.8042C139.753 17.5349 138.763 17.9646 137.597 17.9646C135.683 17.9646 134.253 16.7828 133.835 15.0851H137.421H141.403H144.086C144.372 15.0851 144.614 14.8702 144.636 14.5909C144.658 14.3115 144.658 14.0322 144.658 13.7313C144.526 10.0138 141.337 7.15574 137.531 7.19872C133.527 7.2417 130.602 10.0567 130.602 14.0107C130.602 18.0076 133.571 20.8012 137.619 20.8012C140.479 20.8012 142.766 19.4259 143.888 17.2555C144.042 16.9762 143.822 16.6323 143.492 16.6323H140.853ZM137.597 10.0567C139.357 10.0567 140.677 11.0023 141.227 12.442H133.967C134.517 11.0023 135.859 10.0567 137.597 10.0567Z" fill="#fff" data-darkreader-inline-fill="" style="--darkreader-inline-fill: #fff;"></path></svg>